<?xml version="1.0" encoding="UTF-8"?>
<svg id="Capa_1" xmlns="http://www.w3.org/2000/svg" xmlns:xlink="http://www.w3.org/1999/xlink" version="1.1" viewBox="0 0 1366 768">
  <!-- Generator: Adobe Illustrator 29.2.1, SVG Export Plug-In . SVG Version: 2.1.0 Build 116)  -->
  <defs>
    <style>
      .st0 {
        stroke: url(#Degradado_sin_nombre_191);
      }

      .st0, .st1, .st2, .st3, .st4, .st5, .st6, .st7, .st8, .st9, .st10, .st11 {
        fill: none;
        stroke-miterlimit: 10;
      }

      .st0, .st1, .st2, .st11 {
        stroke-width: 21.1px;
      }

      .st1 {
        stroke: url(#Degradado_sin_nombre_192);
      }

      .st2 {
        stroke: url(#Degradado_sin_nombre_193);
      }

      .st3 {
        stroke: url(#Degradado_sin_nombre_44);
        stroke-width: .9px;
      }

      .st4 {
        stroke: url(#Degradado_sin_nombre_46);
      }

      .st4, .st5, .st6 {
        stroke-width: .8px;
      }

      .st5 {
        stroke: url(#Degradado_sin_nombre_54);
      }

      .st6 {
        stroke: url(#Degradado_sin_nombre_33);
      }

      .st7 {
        stroke-width: .9px;
      }

      .st7, .st8, .st9, .st10 {
        stroke: #fff;
      }

      .st8 {
        stroke-width: .8px;
      }

      .st9 {
        stroke-width: .5px;
      }

      .st10 {
        stroke-width: .6px;
      }

      .st12 {
        fill: #87bba2;
      }

      .st11 {
        stroke: url(#Degradado_sin_nombre_19);
      }
    </style>
    <linearGradient id="Degradado_sin_nombre_19" data-name="Degradado sin nombre 19" x1="703.2" y1="504.1" x2="942.1" y2="504.1" gradientUnits="userSpaceOnUse">
      <stop offset="0" stop-color="#fff"/>
      <stop offset=".4" stop-color="#fff07c"/>
      <stop offset=".7" stop-color="#87bba2"/>
      <stop offset="1" stop-color="#5d737e"/>
    </linearGradient>
    <linearGradient id="Degradado_sin_nombre_191" data-name="Degradado sin nombre 19" x1="703.2" y1="227.4" x2="934.3" y2="227.4" xlink:href="#Degradado_sin_nombre_19"/>
    <linearGradient id="Degradado_sin_nombre_192" data-name="Degradado sin nombre 19" x1="433.6" y1="227.5" x2="664.8" y2="227.5" xlink:href="#Degradado_sin_nombre_19"/>
    <linearGradient id="Degradado_sin_nombre_193" data-name="Degradado sin nombre 19" x1="425.9" y1="503" x2="664.8" y2="503" xlink:href="#Degradado_sin_nombre_19"/>
    <linearGradient id="Degradado_sin_nombre_54" data-name="Degradado sin nombre 54" x1="472.4" y1="432.1" x2="678" y2="313.4" gradientUnits="userSpaceOnUse">
      <stop offset="0" stop-color="#fff"/>
      <stop offset="0" stop-color="#efefef"/>
      <stop offset=".1" stop-color="#b0b0b0"/>
      <stop offset=".2" stop-color="#7a7a7a"/>
      <stop offset=".3" stop-color="#4e4e4e"/>
      <stop offset=".4" stop-color="#2c2c2c"/>
      <stop offset=".5" stop-color="#131313"/>
      <stop offset=".6" stop-color="#050505"/>
      <stop offset=".6" stop-color="#000"/>
      <stop offset=".7" stop-color="#030303"/>
      <stop offset=".7" stop-color="#0d0d0d"/>
      <stop offset=".8" stop-color="#1d1d1d"/>
      <stop offset=".8" stop-color="#353535"/>
      <stop offset=".9" stop-color="#535353"/>
      <stop offset=".9" stop-color="#797979"/>
      <stop offset=".9" stop-color="#a5a5a5"/>
      <stop offset="1" stop-color="#d7d7d7"/>
      <stop offset="1" stop-color="#fff"/>
    </linearGradient>
    <linearGradient id="Degradado_sin_nombre_33" data-name="Degradado sin nombre 33" x1="677.2" y1="359.4" x2="830.1" y2="359.4" gradientUnits="userSpaceOnUse">
      <stop offset="0" stop-color="#fff"/>
      <stop offset=".2" stop-color="#000"/>
      <stop offset=".6" stop-color="#000"/>
      <stop offset="1" stop-color="#fff"/>
    </linearGradient>
    <linearGradient id="Degradado_sin_nombre_44" data-name="Degradado sin nombre 44" x1="757.6" y1="367.1" x2="804.2" y2="286.3" gradientUnits="userSpaceOnUse">
      <stop offset="0" stop-color="#fff"/>
      <stop offset=".1" stop-color="#000"/>
      <stop offset=".4" stop-color="#000"/>
      <stop offset="1" stop-color="#fff"/>
    </linearGradient>
    <linearGradient id="Degradado_sin_nombre_46" data-name="Degradado sin nombre 46" x1="560.5" y1="489.5" x2="660.6" y2="389.4" gradientUnits="userSpaceOnUse">
      <stop offset="0" stop-color="#fff"/>
      <stop offset=".5" stop-color="#000"/>
      <stop offset=".8" stop-color="#000"/>
      <stop offset="1" stop-color="#fff"/>
    </linearGradient>
  </defs>
  <rect id="fondo" width="1366" height="768"/>
  <g id="circulo-grueso">
    <path class="st11" d="M930.8,366.7c.4,6,.7,12.1.7,18.3,0,130-100.2,236.5-227.5,246.7"/>
    <path class="st0" d="M704,138.3c106.9,8.5,194.6,85,220.1,186.2"/>
    <path class="st1" d="M443.9,324.7c25.4-101.3,113.1-177.9,220.1-186.4"/>
    <path class="st2" d="M664,631.7c-127.3-10.2-227.5-116.7-227.5-246.7s.3-13.7.8-20.4"/>
  </g>
  <g id="circulo-fino">
    <path class="st8" d="M439.6,587.9c-46.1-55.1-73.8-126.1-73.8-203.6s23.2-136.3,62.4-189.1"/>
    <path class="st8" d="M849.2,655.5c-48.2,29.5-105,46.6-165.7,46.6s-114.8-16.2-162.3-44.5"/>
    <path class="st8" d="M946.5,205.9c34.6,50.9,54.8,112.3,54.8,178.4s-27.4,147.7-73.1,202.8"/>
    <path class="st8" d="M488.5,133.4c53.8-41.9,121.5-66.8,195-66.8s141.8,25.2,195.8,67.5"/>
  </g>
  <g id="lineas-finas">
    <path class="st5" d="M542.5,553.5s330-225.7,0-323.9"/>
    <path class="st6" d="M829.9,553.5s-251.1-159.5,0-310c0,0-184.4,106-147.4-78.5"/>
    <path class="st3" d="M682,266s44.6,182.5,222.6,78.5"/>
    <path class="st4" d="M459.5,344s314.3-62.7,224.4,268.6"/>
  </g>
  <circle id="foto-perfil" class="st12" cx="682" cy="344" r="100.5"/>
  <g id="icono-planes">
    <circle class="st8" cx="914.5" cy="167.5" r="33"/>
    <path class="st10" d="M898,154.3h6.4v-2.1h2.1v2.1h7v-2.1h2.1v2.1h7v-2.1h2.1v2.1h6.4v29.5h-33v-29.5ZM904.4,156.4h-4.4v3.7h28.9v-3.7h-4.4v2.1h-2.1v-2.1h-7v2.1h-2.1v-2.1h-7v2.1h-2.1v-2.1ZM928.9,162.1h-28.9v19.6h28.9v-19.6Z"/>
  </g>
  <g id="icono-violencia">
    <circle class="st8" cx="892.5" cy="624.5" r="33"/>
    <g>
      <path class="st10" d="M893,604l18,7.7v16.2c-.1.6-.1,1.1-.2,1.7-1.2,8.9-9.6,14.1-17.7,16.3h-.3c-8.2-2.2-16.5-7.4-17.7-16.3s0-1.1-.2-1.7v-16.2s18-7.7,18-7.7h.2Z"/>
      <path class="st10" d="M892.9,608.4l13.9,5.9v.2c-.2,4.4.3,9.1,0,13.5-.5,7.4-7.3,11.8-13.9,13.7-6.6-1.9-13.6-6.4-13.9-13.9v-13.6s13.9-5.9,13.9-5.9ZM901,634.5c1.9-1.8,3-4.1,3.1-6.7.2-3.8-.2-7.7,0-11.5v-.2c0,0-11.2-4.7-11.2-4.7l-11.1,4.7v11.8c.2,5.1,4.4,8.4,8.8,10.3s2,.9,2.4.9,1.9-.6,2.3-.8c2.1-.9,4.2-2.2,5.9-3.7Z"/>
    </g>
  </g>
  <g id="icono-perfil">
    <circle class="st8" cx="476.5" cy="624.5" r="33"/>
    <g>
      <path class="st9" d="M493,643.7h-32.6v-39.7h22.1l10.4,10.4v29.3ZM480.8,606.5h-17.9v34.7h27.6v-25h-9.7v-9.7ZM488.7,613.7l-5.4-5.4v5.4h5.4Z"/>
      <path class="st9" d="M471.1,619.6v-.4c-3.6-1-5.1-5.4-2.7-8.3s6.5-2.3,8.3.7.2,6.7-3.1,7.5v.5s1.5,0,1.5,0v2.5h-1.5v1.5h-2.5v-1.5h-1.6v-2.5h1.6ZM471.8,611.6c-3,.4-2.8,5.2.4,5.2s3.4-5.7-.4-5.2Z"/>
      <rect class="st9" x="467.1" y="625.1" width="19.2" height="2.5"/>
      <rect class="st9" x="467.1" y="630.6" width="19.2" height="2.5"/>
      <rect class="st9" x="467.1" y="636.1" width="19.2" height="2.5"/>
      <rect class="st9" x="478.3" y="619.6" width="7.4" height="2.5"/>
    </g>
  </g>
  <g id="icono-intervencion">
    <circle class="st8" cx="459.5" cy="162.5" r="33"/>
    <g>
      <path class="st9" d="M481.7,162.7c-.3,2-.9,4-2.1,5.7-2.2,3.2-5.8,5-9.7,5v5.5l-7.5-5.1c-1.8-1.4-3.4-2.9-4.8-4.6l-7.9,5.5v-5.5c-9,.2-14.8-9.8-10.1-17.6,3.3-5.5,9.6-6.4,15.5-5.4s5.8,2.3,7.5,4.8c.7-.1,1.4-.4,2.1-.5,1.9-.3,5.8-.3,7.6.1,5,1,8.9,5.4,9.3,10.5v1.9ZM452.5,169.4c.2,0,.4-.2.6-.4,5-3.4,11.4-8.7,8-15.5s-7-5.3-11.8-5c-7.3.4-11.3,8.5-6.8,14.4s4,3.4,5.9,3.4h4v3.1ZM467.2,170.6c3,0,5.6.1,8.1-1.7,5.4-4,4.7-12.3-1.4-15.2s-5.6-1-8-.9-1.8.3-1.9.3c1.1,3.2,1,6.4-.6,9.5s-2.3,3.2-3.6,4.6c2,2.6,4.7,4.6,7.4,6.4v-3.1Z"/>
      <path class="st9" d="M452.8,160.1h1.6v2.7h-1.6v1.6h-2.7v-1.6h-1.7v-2.7h1.7c.1-.7-.3-.6-.7-.8-5.7-2.9-1.5-11.4,4.2-8.6s3.4,7.6-.7,8.9v.5ZM451.1,153c-.8,0-1.6.8-1.7,1.6-.4,2.3,2.4,3.4,3.7,1.6s-.2-3.4-1.9-3.2Z"/>
      <rect class="st9" x="465" y="162.8" width="9.3" height="2.7"/>
      <polygon class="st9" points="474.3 157.9 474.3 160.7 466.6 160.7 466.6 158.1 466.7 157.9 474.3 157.9"/>
    </g>
  </g>
  <rect id="titulo-subtitulo" class="st7" x="583.5" y="463.5" width="201" height="46"/>
</svg>
